# xmcd
#
# Track frame offsets: 
#        150
#        22240
#        38482
#        56861
#        74971
#        92569
#        110825
#        125766
#        144986
#        159390
#
# Disc length: 2333 seconds
#
# Revision: 0
# Processed by: cddbd v1.5.1PL0 Copyright (c) Steve Scherf et al.
# Submitted via: ExactAudioCopy v0.95a5
#
DISCID=96091b0a
DTITLE=Manny Javier - Tus Mentiras
DYEAR=2004
DGENRE=Latin
TTITLE0=Te Inventaré
TTITLE1=El Amor Es Libre
TTITLE2=No Me Engañes
TTITLE3=Al Final Del Verano
TTITLE4=No Te Puedo Olvidar
TTITLE5=Extranjera
TTITLE6=Tus Mentiras
TTITLE7=El O Yo
TTITLE8=Es A Ti A Quien Quiero
TTITLE9=No Quiero Verte Triste
EXTD=
EXTT0=
EXTT1=
EXTT2=
EXTT3=
EXTT4=
EXTT5=
EXTT6=
EXTT7=
EXTT8=
EXTT9=
PLAYORDER=
